<svg xmlns="http://www.w3.org/2000/svg" viewBox="0 0 800 800" role="img" aria-labelledby="title description">
  <title id="title">Bolsa Essencial</title>
  <description id="description">Bolsa de tecido verde oliva sobre fundo natural.</description>
  <defs>
    <linearGradient id="bg" x1="0" y1="0" x2="1" y2="1">
      <stop stop-color="#e9e2d2"/>
      <stop offset="1" stop-color="#cbd1b5"/>
    </linearGradient>
    <linearGradient id="bag" x1="0" y1="0" x2="1" y2="1">
      <stop stop-color="#7f8c5d"/>
      <stop offset="1" stop-color="#4f6141"/>
    </linearGradient>
    <filter id="shadow" x="-30%" y="-30%" width="160%" height="180%">
      <feDropShadow dx="0" dy="30" stdDeviation="28" flood-color="#263521" flood-opacity=".24"/>
    </filter>
  </defs>
  <rect width="800" height="800" fill="url(#bg)"/>
  <path d="M0 610c173-94 316-91 437-40 130 55 232 52 363-34v264H0z" fill="#fff" opacity=".18"/>
  <g filter="url(#shadow)">
    <path d="M231 287h338l-25 374H256z" fill="url(#bag)"/>
    <path d="M305 326c7-127 42-190 95-190s88 63 95 190" fill="none" stroke="#45533a" stroke-width="35" stroke-linecap="round"/>
    <path d="M306 325c7-111 39-168 94-168s87 57 94 168" fill="none" stroke="#9aa681" stroke-width="12" stroke-linecap="round"/>
    <path d="M290 423c63 39 155 41 222 0" fill="none" stroke="#bac4a3" stroke-width="9" stroke-linecap="round" opacity=".58"/>
    <circle cx="400" cy="497" r="47" fill="#d7ccaa" opacity=".88"/>
    <path d="M380 497h40M400 477v40" stroke="#536146" stroke-width="8" stroke-linecap="round"/>
  </g>
</svg>
